<svg xmlns="http://www.w3.org/2000/svg" xmlns:xlink="http://www.w3.org/1999/xlink" viewBox="0 0 5956.84574 3059.22803"><defs><style>.cls-1{fill:none;}.cls-2{clip-path:url(#clip-path);}.cls-3{fill:url(#linear-gradient);}.cls-4,.cls-5,.cls-6,.cls-7,.cls-8{opacity:0.45;}.cls-4{fill:url(#linear-gradient-2);}.cls-5{fill:url(#linear-gradient-3);}.cls-6{fill:url(#linear-gradient-4);}.cls-7{fill:url(#linear-gradient-5);}.cls-8{fill:url(#linear-gradient-6);}</style><clipPath id="clip-path" transform="translate(660.2286)"><path class="cls-1" d="M4579.49336,3052.99565H0V0H4579.49336Z"/></clipPath><linearGradient id="linear-gradient" x1="2289.74668" y1="-195.61154" x2="2289.74668" y2="3309.50224" gradientUnits="userSpaceOnUse"><stop offset="0" stop-color="#975ae7"/><stop offset="0.43971" stop-color="#662d91"/><stop offset="0.96954" stop-color="#1b1464"/></linearGradient><linearGradient id="linear-gradient-2" x1="3683.77886" y1="2767.84946" x2="3417.92962" y2="1324.67099" gradientUnits="userSpaceOnUse"><stop offset="0.3105" stop-color="#662d91" stop-opacity="0"/><stop offset="0.96954" stop-color="#1b1464"/></linearGradient><linearGradient id="linear-gradient-3" x1="5005.42103" y1="3148.84242" x2="4691.12464" y2="1795.7739" gradientUnits="userSpaceOnUse"><stop offset="0.01975" stop-color="#662d91" stop-opacity="0"/><stop offset="0.96954" stop-color="#1b1464"/></linearGradient><linearGradient id="linear-gradient-4" x1="3440.13708" y1="3349.32046" x2="3426.58712" y2="1946.98834" gradientUnits="userSpaceOnUse"><stop offset="0.0182" stop-color="#662d91" stop-opacity="0"/><stop offset="0.96954" stop-color="#1b1464"/></linearGradient><linearGradient id="linear-gradient-5" x1="981.71153" y1="2831.77292" x2="1006.05782" y2="1285.74707" gradientUnits="userSpaceOnUse"><stop offset="0.37288" stop-color="#662d91" stop-opacity="0"/><stop offset="0.96954" stop-color="#1b1464"/></linearGradient><linearGradient id="linear-gradient-6" x1="1275.56143" y1="3135.85502" x2="1275.56143" y2="1910.28759" xlink:href="#linear-gradient-3"/></defs><g id="Layer_2" data-name="Layer 2"><g id="Background"><g class="cls-2"><path class="cls-3" d="M4579.49336,3052.99565H0V0H4579.49336Z" transform="translate(660.2286)"/><path class="cls-4" d="M2005.34488,2509.30109l782.27455-1175.87166,444.54424,770.388,491.29965-791.33525s158.06029,207.14392,165.04311,209.47091c6.9822,2.32761,360.88313-568.69249,360.88313-568.69249L4984.73761,2078.215l311.87953,568.62654H2026.35864Z" transform="translate(660.2286)"/><polygon class="cls-5" points="4076.641 3052.996 4953.587 1558.653 5269.558 1931.046 5398.132 1702.955 5742.595 2419.812 5742.595 3052.996 4076.641 3052.996"/><polygon class="cls-6" points="5100.772 3059.228 3981.225 1485.1 3576.248 2134.46 3419.471 1841.201 3168.943 2155.407 2919.905 1796.979 1773.836 3052.996 5100.772 3059.228"/><path class="cls-7" d="M-660.2286,2528.30659,122.04594,1352.43494l444.54424,770.388,491.29965-791.33525s158.0603,207.14331,165.04311,209.47091c6.9822,2.32761,451.52583-714.52859,451.52583-714.52859l644.70535,1270.79051L2631.0435,2665.8471H-639.21483Z" transform="translate(660.2286)"/><polygon class="cls-8" points="2521.211 3059.228 1351.907 1485.1 946.93 2134.46 790.152 1841.201 539.625 2155.407 290.587 1796.979 29.912 2141.443 48.283 3052.996 2521.211 3059.228"/></g></g></g></svg>