<svg xmlns="http://www.w3.org/2000/svg" viewBox="0 0 446.55117 341.48148"><defs><style>.cls-1{fill:#fff;}</style></defs><g id="Layer_2" data-name="Layer 2"><g id="OBJECTS"><path class="cls-1" d="M195.52445,306.27627a6.5717,6.5717,0,0,0,0,13.14339h59.8748a6.5717,6.5717,0,1,0,0-13.14339Z"/><path class="cls-1" d="M345.56891,251.71715l3.62417,7.18975a1.90712,1.90712,0,0,0,2.113.99672c3.20463-.71666,6.33383-1.46829,9.40794-2.244a1.88776,1.88776,0,0,0,1.21469-2.6843L356.64387,244.49a6.09118,6.09118,0,0,0-1.24617-1.71994,20.29006,20.29006,0,0,0-13.7527-5.26146H109.33205a20.0314,20.0314,0,0,0-13.74088,5.24856A6.10581,6.10581,0,0,0,94.33034,244.49l-5.2936,10.50281a1.88643,1.88643,0,0,0,1.21534,2.68583q4.599,1.14713,9.42586,2.21622a1.9058,1.9058,0,0,0,2.10843-.9965l3.61894-7.18035a7.4394,7.4394,0,0,1,3.92674-1.06625H341.645A7.43793,7.43793,0,0,1,345.56891,251.71715Z"/><path class="cls-1" d="M392.75506,316.1337l-16.09548-31.9328a1.87176,1.87176,0,0,0-2.16376-.97071q-4.51933,1.217-9.24462,2.3592a1.88943,1.88943,0,0,0-1.25689,2.681l16.95952,33.64465c1.74376,3.66549,1.4449,5.44948,1.27065,5.72823-.07324.11369-.946.695-3.35373.695H72.1052c-2.4086,0-3.30519-.60516-3.39767-.75558-.17621-.28224-.476-2.059,1.24945-5.53387l17.03756-33.80294a1.88936,1.88936,0,0,0-1.25295-2.68058q-4.72922-1.14746-9.2433-2.37034a1.87,1.87,0,0,0-2.16506.96982L58.20275,316.16868c-3.4519,6.951-3.68932,13.46411-.6666,18.3397,1.61456,2.60363,5.6539,6.9731,14.569,6.9731H378.87075c8.83821,0,12.85743-4.27218,14.46542-6.81918C395.47981,331.26834,397.13,325.32388,392.75506,316.1337Z"/><path class="cls-1" d="M92.39418,165.36559l.70332,8.3395.21579,2.55772.69721,8.2667L96.89637,218.75a12.28027,12.28027,0,0,0,12.23673,11.24812H341.7917a12.34813,12.34813,0,0,0,12.23368-11.24833l11.50588-136.417a19.66146,19.66146,0,0,0-14.05047-20.51591,20.86031,20.86031,0,0,0-6.00064-.80433H329.83939a1.759,1.759,0,0,0-1.73961,1.94862c.14844,1.54985.22934,3.11915.22934,4.70747,0,1.53213-.07587,3.04656-.2147,4.54306a1.76046,1.76046,0,0,0,1.74115,1.94424l15.87337-.00022a6.75506,6.75506,0,0,1,4.439,1.55772,6.493,6.493,0,0,1,2.26782,5.51551L340.9959,216.85475h-231.069L98.48883,81.22805a6.48454,6.48454,0,0,1,2.27-5.51791,6.76408,6.76408,0,0,1,4.43965-1.55444l15.86878.00022a1.76017,1.76017,0,0,0,1.74093-1.94424c-.13861-1.4965-.21469-3.01093-.21469-4.54306,0-1.58832.08112-3.15762.22955-4.70747a1.759,1.759,0,0,0-1.73961-1.94862H105.45165a20.904,20.904,0,0,0-6.0037.803,19.66157,19.66157,0,0,0-14.0566,20.51722Z"/><path class="cls-1" d="M173.17929,110.74285a6.5717,6.5717,0,0,0,0-13.14339,29.93109,29.93109,0,1,1,10.57344-57.898,6.56983,6.56983,0,0,0,8.45386-3.77087,35.66783,35.66783,0,0,1,66.5206-.00284,6.57417,6.57417,0,0,0,8.453,3.77087A29.91677,29.91677,0,1,1,277.7455,97.59946a6.5717,6.5717,0,0,0,0,13.14339,43.07434,43.07434,0,1,0,0-86.14868,42.38445,42.38445,0,0,0-9.31108,1.037,48.82876,48.82876,0,0,0-85.934.002,42.4121,42.4121,0,0,0-9.32114-1.03891,43.07434,43.07434,0,1,0,0,86.14868Z"/><path class="cls-1" d="M370.63356,182.14626c9.09836,2.38478,17.53122,5.014,25.06378,7.81393a6.57195,6.57195,0,1,0,4.58023-12.32c-7.94139-2.951-16.794-5.71249-26.31039-8.20811a6.572,6.572,0,0,0-3.33362,12.71422Z"/><path class="cls-1" d="M203.296,155.93207l22.16872-18.48552,22.16786,18.48552a4.64138,4.64138,0,0,0,2.9884,1.13139,5.13758,5.13758,0,0,0,4.42369-2.888,7.5647,7.5647,0,0,0-1.42632-9.12569l-25.15844-20.97853a4.6089,4.6089,0,0,0-5.98971,0l-25.15845,20.97853a7.56291,7.56291,0,0,0-1.42653,9.12569C197.538,157.18087,200.85545,157.96661,203.296,155.93207Z"/><path class="cls-1" d="M203.296,123.55983l22.16872-18.48575,22.16786,18.48575a4.64235,4.64235,0,0,0,2.9884,1.13117,5.13732,5.13732,0,0,0,4.42369-2.88784,7.565,7.565,0,0,0-1.42632-9.1259L228.45988,91.699a4.60888,4.60888,0,0,0-5.98971,0l-25.15845,20.97831a7.56321,7.56321,0,0,0-1.42653,9.1259C197.538,124.8084,200.85545,125.59327,203.296,123.55983Z"/><path class="cls-1" d="M203.296,91.18736l22.16872-18.48552,22.16786,18.48552a4.64258,4.64258,0,0,0,2.9884,1.1314,5.13757,5.13757,0,0,0,4.42369-2.88806,7.56507,7.56507,0,0,0-1.42632-9.12591l-25.15844-20.9783a4.60888,4.60888,0,0,0-5.98971,0l-25.15845,20.9783a7.56328,7.56328,0,0,0-1.42653,9.12591C197.538,92.43419,200.85545,93.22081,203.296,91.18736Z"/><path class="cls-1" d="M33.38361,239.62077a15.81469,15.81469,0,0,0-7.39154,1.82946c-6.84147-4.98206-12.8489-11.35174-12.8489-18.37315,0-14.392,25.72928-30.07579,67.147-40.93082A6.57177,6.57177,0,0,0,76.95828,169.432C27.33072,182.43966,0,201.491,0,223.07708c0,10.355,6.02994,20.00039,17.93349,28.76228a15.887,15.887,0,1,0,15.45012-12.21859Z"/><path class="cls-1" d="M442.19351,208.38494a15.95178,15.95178,0,1,0-10.16482,8.812,13.97808,13.97808,0,0,1,1.37932,5.88018c0,14.4569-24.84822,29.80207-66.95437,40.87529q-6.306,1.65839-13.11147,3.18582c-34.31146,7.67139-78.02058,12.61672-127.8803,12.61672a682.89314,682.89314,0,0,1-74.31532-3.93681,500.4019,500.4019,0,0,1-53.50949-8.68756q-6.77523-1.50885-13.11956-3.17183c-3.67292-.96305-7.24265-1.95912-10.6705-2.99475a6.572,6.572,0,0,0-3.801,12.58239q4.0986,1.23765,8.42543,2.40861c4.20747,1.14036,8.57344,2.22977,13.06993,3.26978a507.09383,507.09383,0,0,0,58.16776,9.65607,695.4122,695.4122,0,0,0,75.75279,4.01749c46.71325,0,94.702-4.65019,133.98457-13.64995q6.71723-1.539,13.08043-3.2466c43.87178-11.78966,74.0243-29.59351,74.0243-52.92467A27.859,27.859,0,0,0,442.19351,208.38494Z"/><path class="cls-1" d="M151.45394,189.43593h48.98764l-.00109-.01618a4.64309,4.64309,0,0,0,2.85548-1.11521L225.46469,169.819l22.16786,18.48553a4.65077,4.65077,0,0,0,2.85045,1.11893l-.00152.01246h48.98764a6.007,6.007,0,0,0,0-12.014h-45.8508l-25.15844-20.9783a4.60888,4.60888,0,0,0-5.98971,0L197.31172,177.422H151.45394a6.007,6.007,0,0,0,0,12.014Z"/></g></g></svg>